<?xml version="1.0" standalone="no"?><!DOCTYPE svg PUBLIC "-//W3C//DTD SVG 1.1//EN" "http://www.w3.org/Graphics/SVG/1.1/DTD/svg11.dtd"><svg t="1721275340054" class="icon" viewBox="0 0 1024 1024" version="1.1" xmlns="http://www.w3.org/2000/svg" p-id="10080" xmlns:xlink="http://www.w3.org/1999/xlink" width="32" height="32"><path d="M70.826667 388.693333a376.32 376.32 0 0 1 178.773333-211.2 107.093333 107.093333 0 0 1 205.653333-60.586666l3.84 12.373333a567.466667 567.466667 0 0 1 180.906667 31.146667 648.96 648.96 0 0 1 79.786667 33.28l11.52-11.093334a107.52 107.52 0 0 1 160 143.36 375.893333 375.893333 0 0 1 71.253333 358.826667C896 905.813333 640 994.133333 393.386667 914.346667 138.24 830.293333-26.026667 664.746667 70.826667 388.693333z" fill="#CB8B5C" p-id="10081"></path><path d="M315.733333 37.973333A118.613333 118.613333 0 0 0 237.653333 170.666667a387.84 387.84 0 0 0-176.64 213.333333c-49.493333 140.8-32.853333 256 30.293334 344.32s170.666667 152.32 298.666666 194.56c250.026667 81.066667 512-7.68 583.68-236.373333a384 384 0 0 0-68.266666-361.813334A118.186667 118.186667 0 0 0 725.333333 174.933333l-6.4 5.973334a585.813333 585.813333 0 0 0-74.24-30.293334 576 576 0 0 0-177.493333-32v-5.12A119.04 119.04 0 0 0 315.733333 37.973333z m128 81.92l6.4 19.626667h7.68a549.546667 549.546667 0 0 1 179.626667 31.146667 628.053333 628.053333 0 0 1 78.506667 32.426666l6.826666 3.413334 17.066667-16.64a97.28 97.28 0 0 1 144.213333 128l-5.546666 6.4 5.546666 6.826666A364.373333 364.373333 0 0 1 953.173333 682.666667C888.32 896 640 981.333333 396.8 904.106667c-128-42.666667-229.12-102.826667-288-186.453334S33.28 527.786667 81.066667 392.533333A363.946667 363.946667 0 0 1 256 186.88l7.253333-3.84V174.933333a97.28 97.28 0 0 1 59.306667-116.48 96.853333 96.853333 0 0 1 122.453333 61.44z" fill="#9F633F" p-id="10082"></path><path d="M353.28 532.906667a77.653333 77.653333 0 0 1-42.666667-101.12 77.653333 77.653333 0 0 1 96.426667-51.626667 77.653333 77.653333 0 0 1 42.666667 101.12 77.653333 77.653333 0 0 1-96.426667 51.626667z" fill="#FFFFFF" p-id="10083"></path><path d="M346.88 445.013333a63.146667 63.146667 0 0 1 77.226667-42.666666 62.72 62.72 0 0 1 24.746666 18.346666 85.333333 85.333333 0 0 1 0 61.866667 85.333333 85.333333 0 0 1-45.653333 49.493333 58.026667 58.026667 0 0 1-25.6 0 64.426667 64.426667 0 0 1-30.72-87.04z" fill="#612C17" p-id="10084"></path><path d="M671.146667 600.32a77.653333 77.653333 0 0 1-42.666667-101.12A74.666667 74.666667 0 1 1 768 548.693333a77.653333 77.653333 0 0 1-96.853333 51.626667z" fill="#FFFFFF" p-id="10085"></path><path d="M664.746667 512a61.866667 61.866667 0 0 1 76.8-42.666667 57.173333 57.173333 0 0 1 24.746666 18.346667 85.333333 85.333333 0 0 1-42.666666 111.36 59.733333 59.733333 0 0 1-26.026667-2.133333 64.853333 64.853333 0 0 1-32.853333-84.906667z" fill="#612C17" p-id="10086"></path><path d="M231.68 631.466667a81.066667 81.066667 0 1 1 81.066667-80.64 81.066667 81.066667 0 0 1-81.066667 80.64zM810.666667 745.813333a81.066667 81.066667 0 1 1 80.64-81.066666 81.066667 81.066667 0 0 1-80.64 81.066666z" fill="#FABC65" p-id="10087"></path><path d="M450.56 550.826667c-15.36 60.586667-4.693333 105.386667 42.666667 117.76s78.08-21.76 93.44-82.773334 9.386667-124.586667-37.12-136.106666-83.626667 40.106667-98.986667 101.12z" fill="#F4DAB9" p-id="10088"></path><path d="M533.333333 529.92a34.56 34.56 0 1 1 34.133334-34.56 34.133333 34.133333 0 0 1-34.133334 34.56z" fill="#612C17" p-id="10089"></path><path d="M533.76 507.306667a10.666667 10.666667 0 0 0-14.506667 3.84l9.386667 5.12-9.386667-4.266667v2.986667a42.666667 42.666667 0 0 0-4.266666 9.813333 107.52 107.52 0 0 0-7.253334 33.706667 99.413333 99.413333 0 0 0 51.2 89.6 10.666667 10.666667 0 0 0 14.506667-2.986667 11.093333 11.093333 0 0 0-2.986667-14.933333 77.653333 77.653333 0 0 1-42.666666-70.826667 90.453333 90.453333 0 0 1 5.546666-27.306667 75.946667 75.946667 0 0 1 3.413334-7.68m0 0z" fill="#612C17" p-id="10090"></path><path d="M521.813333 558.08a10.666667 10.666667 0 0 0-14.08 5.12l9.386667 4.693333-9.386667-4.693333-3.413333 5.12a85.333333 85.333333 0 0 1-11.946667 15.36 48.213333 48.213333 0 0 1-42.666666 15.786667 10.666667 10.666667 0 0 0-12.373334 8.533333 11.093333 11.093333 0 0 0 8.533334 12.373333 69.973333 69.973333 0 0 0 62.72-21.76 118.186667 118.186667 0 0 0 14.933333-18.773333l3.84-6.4v-2.133333l-9.813333-4.266667 9.813333 4.266667a11.093333 11.093333 0 0 0-5.546667-13.226667z" fill="#612C17" p-id="10091"></path><path d="M430.933333 554.666667a10.666667 10.666667 0 0 0-2.56 14.933333l8.96-6.4-10.666666 4.266667a27.306667 27.306667 0 0 0 2.56 4.693333 72.96 72.96 0 0 1 5.12 16.213333 66.986667 66.986667 0 0 1-16.64 53.76 10.666667 10.666667 0 0 0 0 14.933334 10.24 10.24 0 0 0 14.933333 0 89.173333 89.173333 0 0 0 20.906667-70.4 90.026667 90.026667 0 0 0-7.253334-22.186667 25.6 25.6 0 0 0-2.986666-5.973333l-8.533334 5.973333 8.533334-5.973333a10.666667 10.666667 0 0 0-12.373334-3.84z" fill="#612C17" p-id="10092"></path></svg>