<?xml version="1.0" standalone="no"?><!DOCTYPE svg PUBLIC "-//W3C//DTD SVG 1.1//EN" "http://www.w3.org/Graphics/SVG/1.1/DTD/svg11.dtd"><svg t="1721372095632" class="icon" viewBox="0 0 1024 1024" version="1.1" xmlns="http://www.w3.org/2000/svg" p-id="4332" xmlns:xlink="http://www.w3.org/1999/xlink" width="16" height="16"><path d="M768 320h85.33c23.56 0 42.67 19.1 42.67 42.67v42.67c0 23.56-19.1 42.67-42.67 42.67H768c23.56 0 42.67-19.1 42.67-42.67v-42.67c0-23.57-19.11-42.67-42.67-42.67z" fill="#FFCB4B" fill-opacity=".35" p-id="4333"></path><path d="M742 448h80l-29.5 366.09c-1.79 22.16-20.29 39.24-42.53 39.24h-80c22.24 0 40.74-17.08 42.53-39.24L742 448z" fill="#FFCB4B" fill-opacity=".35" p-id="4334"></path><path d="M853.33 285.87h-16.92l-26.75-93.63c-9.37-32.8-39.74-55.7-73.85-55.7H288.18c-34.11 0-64.47 22.91-73.84 55.7l-26.75 93.63h-16.92c-42.35 0-76.8 34.45-76.8 76.8v42.67c0 42.29 34.37 76.71 76.64 76.8l26.97 334.71c1.55 19.29 10.25 37.15 24.47 50.28s32.72 20.36 52.08 20.36h475.93c19.36 0 37.85-7.23 52.08-20.36s22.92-30.98 24.47-50.28l26.97-334.71c42.27-0.09 76.64-34.5 76.64-76.8v-42.67c0.01-42.35-34.44-76.8-76.79-76.8z m-573.35-74.88c1.04-3.64 4.42-6.19 8.21-6.19h447.63c3.79 0 7.16 2.54 8.21 6.19l21.39 74.88H258.58l21.4-74.88z m478.49 600.36c-0.35 4.4-4.09 7.85-8.51 7.85H274.03c-4.42 0-8.15-3.45-8.51-7.85L239 482.13h546l-26.53 329.22z m103.4-406.02c0 4.71-3.83 8.53-8.53 8.53H170.67c-4.71 0-8.53-3.83-8.53-8.53v-42.67c0-4.71 3.83-8.53 8.53-8.53h682.67c4.71 0 8.53 3.83 8.53 8.53v42.67z" fill="#3F3F3F" p-id="4335"></path><path d="M512 563.2c-18.85 0-34.13 15.28-34.13 34.13v149.33c0 18.85 15.28 34.13 34.13 34.13s34.13-15.28 34.13-34.13V597.33c0-18.85-15.28-34.13-34.13-34.13zM687.49 563.54c-18.65-2.67-35.95 10.3-38.62 28.96l-21.33 149.33c-2.67 18.66 10.3 35.95 28.96 38.62 1.64 0.23 3.26 0.35 4.87 0.35 16.71 0 31.32-12.29 33.75-29.31l21.33-149.33c2.67-18.66-10.29-35.95-28.96-38.62zM375.12 592.51c-2.67-18.66-19.96-31.63-38.62-28.96-18.66 2.67-31.63 19.96-28.96 38.62l21.33 149.33c2.43 17.03 17.04 29.31 33.75 29.31 1.61 0 3.23-0.11 4.87-0.35 18.66-2.67 31.63-19.96 28.96-38.62l-21.33-149.33z" fill="#FFC33E" p-id="4336"></path></svg>