<?xml version="1.0" standalone="no"?><!DOCTYPE svg PUBLIC "-//W3C//DTD SVG 1.1//EN" "http://www.w3.org/Graphics/SVG/1.1/DTD/svg11.dtd"><svg t="1721267515356" class="icon" viewBox="0 0 1024 1024" version="1.1" xmlns="http://www.w3.org/2000/svg" p-id="16432" xmlns:xlink="http://www.w3.org/1999/xlink" width="32" height="32"><path d="M608.256 565.3504m-179.0976 0a179.0976 179.0976 0 1 0 358.1952 0 179.0976 179.0976 0 1 0-358.1952 0Z" fill="#FFBE0A" p-id="16433"></path><path d="M635.5968 921.4464c-49.0496 0-92.9792-25.7536-117.4016-69.9392l-116.3264-210.3808-231.1168-103.1168C125.4912 517.8368 98.3552 474.4704 99.9424 424.96c1.5872-49.5616 31.4368-91.0848 77.9264-108.3392L730.624 111.2576a134.94784 134.94784 0 0 1 137.728 26.3168c37.5808 33.8432 53.0432 85.2992 40.448 134.2976l-141.1072 547.9424c-14.1312 54.8352-57.8048 93.3376-113.9712 100.5056-6.144 0.7168-12.1856 1.1264-18.1248 1.1264zM202.8544 383.7952c-28.0576 10.4448-31.0272 35.8912-31.232 43.4688-0.256 7.5776 1.0752 33.1776 28.416 45.3632l242.0736 108.032c7.1168 3.1744 13.0048 8.5504 16.7424 15.4112l122.112 220.8768c13.1072 23.6544 36.9152 35.7888 63.744 32.3584 26.8288-3.4304 46.848-21.0944 53.6064-47.2576L839.3728 253.952c6.0416-23.3984-1.0752-47.0016-19.0464-63.1296-17.92-16.1792-42.1376-20.7872-64.768-12.3904L202.8544 383.7952z" fill="#34332E" p-id="16434"></path><path d="M532.224 529.6128c-9.0624 0-18.176-3.4304-25.1392-10.2912a35.87584 35.87584 0 0 1-0.4096-50.688l152.064-154.4704a35.82976 35.82976 0 0 1 50.688-0.4096 35.87584 35.87584 0 0 1 0.4096 50.688l-152.064 154.4704a35.57376 35.57376 0 0 1-25.5488 10.7008z" fill="#34332E" p-id="16435"></path></svg>